<?xml version="1.0" standalone="no"?><!DOCTYPE svg PUBLIC "-//W3C//DTD SVG 1.1//EN" "http://www.w3.org/Graphics/SVG/1.1/DTD/svg11.dtd"><svg t="1768462407887" fill="currentColor" viewBox="0 0 1024 1024" version="1.1" xmlns="http://www.w3.org/2000/svg" p-id="5209" xmlns:xlink="http://www.w3.org/1999/xlink" ><path d="M931.66307685 390.72153886c-23.41384629 10.38461572-46.56461573 2.14615372-69.74307685-1.43999999-40.41692315-6.25846114-74.50615371 7.24153887-102.71076943 41.30307686 27.22153887-4.45846114 51.20307685 6.75692315 75.86307685 16.11692314 48.04615372 18.22153887 105.28615372-13.72153886 117.24923144-65.57538515-7.47692315 3.46153886-14.04 6.64615371-20.65846201 9.59538515zM742.06769258 374.88153887c10.37076943 13.30615371 12.33692315 27.15230742 8.57076856 43.42153798 29.88-5.20615372 43.26923057-34.61538427 30.00461571-64.31538427a73.8 73.8 0 0 0-11.18769258-17.91692315c-13.81846114-16.04769258-20.40923057-33.46615372-7.60153798-58.86-38.03538427 25.65692315-45.09692315 65.20153886-19.78615371 97.67076944zM741.33384628 427.30307685c-2.63076943 4.16769258-25.46307685 34.28307685-41.52461571 42.70153888-27.80307685 16.04769258-48.43384629 22.30615371-85.29230742 36.84461484-36.94153887 14.52461573-50.16461572 23.53846114-104.4138463 35.18307685-47.35384629 3.66923057-103.02923057 4.63846114-132.95076943-20.53384628-22.5-18.94153887-44.65384628-38.39538428-66.80769169-57.84923057-42.06461573-36.95538428-87.49384628-66.17076943-140.81538516-77.17846114-31.48615372-6.49384629-62.46-4.47230742-93.93230742 7.29692315 1.75846114 1.63384628 2.11846113 2.22923057 2.53384628 2.31230742 3.44769258 0.60923057 6.89538427 1.17692315 10.35692315 1.68923057 76.45846114 11.29846113 135.20769258 51.32769258 169.93384629 130.87384628 5.96769258 13.63846113 12.78 26.93076943 20.27076855 39.58615372 21.87692315 36.96923057 51.34153886 64.68923057 89.55692315 75.86307685 72.91384629 21.28153886 144.36 16.72615372 212.53846201-23.22 39.24-22.95692315 72.74769258-53.58461572 104.23384629-88.26923057 0 0 46.05230742-50.34461572 56.67230742-105.07846112 0.08307685-0.27692315-0.22153887-0.42923057-0.36-0.22153888z" p-id="5210"></path><path d="M389.28153886 665.70615372c4.04307685 5.41384628 8.14153886 9.24923057 12.65538429 12.35076943 28.75846113 19.77230742 59.16461572 28.16307685 93.37846113 22.3061537 72.87230742-12.51692315 126.95538428-54.20769258 162.36-127.59230742-75.66923057 80.88923057-165.00461573 111.17076943-268.39384541 92.93538429zM442.31230742 740.15692315c-7.11692315-24.07846114-21.68307685-38.04923057-40.54153799-49.25076943-8.19692315-4.86-15.63230742-11.90769258-22.26461571-19.2738463-5.94-6.57692315-7.89230742-21.80769258-19.05230743-14.89846113-3.28153886 2.02153887-2.13230742 19.30153886 1.16307686 27.45692314 22.98461572 56.85230742 66.07384628 84.15692315 116.83384628 99.34615372l3.2538463-5.17846201c-6.35538428-4.97076943-13.11230742-9.42923057-18.95538516-15.03692227-7.43538428-7.14461573-17.69538427-13.91538428-20.43692315-23.16461572zM268.91692315 695.07384629a84.48923057 84.48923057 0 0 0-3.19846201-26.40461572l2.24307773 1.17692315c28.70307685 14.60769258 57.91846113 27.12461572 91.19076855 31.34769257-13.14-30.11538428-23.34461573-59.08153886-50.7876917-74.94923057-10.64769258-6.14769258-20.06307685-17.50153886-26.93076943-28.85538515-13.45846113-22.27846113-25.00615372-46.06615372-36.88615371-69.52153799-35.87538428-70.83692315-89.55692315-110.78307685-162.16615372-117.70615371-22.26461572-2.13230742-24.52153886 1.93846114-15.21692314 24.89538428 33.79846113 83.35384629 81 152.26615372 146.76923056 201.26769257 9.84461572 48.87692315 38.57538428 84.30923057 75.40615372 113.55230743l4.65230742-3.58615372c-4.40307685-7.14461573-9.34615371-13.94307685-13.09846113-21.50307685-4.74923057-9.60923057-12.28153886-19.95230742-11.97692314-29.7138463z" p-id="5211"></path></svg>